# xmcd
#
# Track frame offsets:
#	150
#	19350
#	41375
#	75530
#
# Disc length: 1387 seconds
#
# Revision: 1
# Processed by: cddbd v1.5.1PL0 Copyright (c) Steve Scherf et al.
# Submitted via: EasyCDDAExtractor 7.0.6.1
#
DISCID=24056904
DTITLE=Mint Condition - You don't have to hurt no more
DYEAR=1997
DGENRE=R&B
TTITLE0=You don't have to hurt no more (radio edit)
TTITLE1=change your mind (LP version)
TTITLE2=what kind of man would I be (live remix)
TTITLE3=what kind of man would I be (temptation remix)
EXTD=
EXTT0=
EXTT1=
EXTT2=
EXTT3=
PLAYORDER=
